<svg width="14" height="14" viewBox="0 0 14 14" fill="none" xmlns="http://www.w3.org/2000/svg">
<g clip-path="url(#clip0_158_5048)">
<path d="M5.38943 7.1967C5.10476 7.10181 5.10476 6.69983 5.38943 6.60495L7.06031 6.04856C7.42762 5.92609 7.76135 5.71975 8.03505 5.4459C8.30876 5.17205 8.51491 4.8382 8.63718 4.47083L9.19357 2.80081C9.28845 2.51614 9.69043 2.51614 9.78532 2.80081L10.3417 4.4717C10.4642 4.839 10.6705 5.17273 10.9444 5.44643C11.2182 5.72014 11.5521 5.92629 11.9194 6.04856L13.5895 6.60495C13.6518 6.6254 13.7061 6.66502 13.7446 6.71816C13.783 6.77129 13.8038 6.83522 13.8038 6.90082C13.8038 6.96643 13.783 7.03036 13.7446 7.08349C13.7061 7.13662 13.6518 7.17624 13.5895 7.1967L11.9186 7.75309C11.5514 7.87547 11.2177 8.08168 10.944 8.35537C10.6703 8.62907 10.4641 8.96274 10.3417 9.32995L9.78532 11.0008C9.76486 11.0632 9.72524 11.1175 9.67211 11.1559C9.61898 11.1944 9.55505 11.2151 9.48944 11.2151C9.42384 11.2151 9.35991 11.1944 9.30678 11.1559C9.25364 11.1175 9.21402 11.0632 9.19357 11.0008L8.63718 9.32995C8.5148 8.96274 8.30859 8.62907 8.03489 8.35537C7.7612 8.08168 7.42753 7.87547 7.06032 7.75309L5.38943 7.1967ZM0.990946 10.529C0.95359 10.5166 0.921082 10.4928 0.898041 10.4609C0.875001 10.429 0.862599 10.3906 0.862599 10.3513C0.862599 10.3119 0.875001 10.2736 0.898041 10.2417C0.921082 10.2098 0.95359 10.186 0.990946 10.1736L1.99331 9.83976C2.44014 9.69053 2.79036 9.3403 2.9396 8.89347L3.27343 7.89111C3.2858 7.85375 3.30963 7.82124 3.34153 7.7982C3.37343 7.77516 3.41178 7.76276 3.45113 7.76276C3.49048 7.76276 3.52883 7.77516 3.56073 7.7982C3.59263 7.82124 3.61646 7.85375 3.62883 7.89111L3.96266 8.89347C4.03608 9.11385 4.15982 9.31409 4.32407 9.47834C4.48833 9.6426 4.68857 9.76634 4.90895 9.83976L5.91131 10.1736C5.94867 10.186 5.98117 10.2098 6.00421 10.2417C6.02726 10.2736 6.03966 10.3119 6.03966 10.3513C6.03966 10.3906 6.02726 10.429 6.00421 10.4609C5.98117 10.4928 5.94867 10.5166 5.91131 10.529L4.90895 10.8628C4.68857 10.9362 4.48833 11.06 4.32407 11.2242C4.15982 11.3885 4.03608 11.5887 3.96266 11.8091L3.62883 12.8115C3.61646 12.8488 3.59263 12.8813 3.56073 12.9044C3.52883 12.9274 3.49048 12.9398 3.45113 12.9398C3.41178 12.9398 3.37343 12.9274 3.34153 12.9044C3.30963 12.8813 3.2858 12.8488 3.27343 12.8115L2.9396 11.8091C2.86617 11.5887 2.74243 11.3885 2.57818 11.2242C2.41393 11.06 2.21368 10.9362 1.99331 10.8628L0.990946 10.529ZM0.0860607 4.43115C0.0614989 4.42264 0.0402005 4.40668 0.0251269 4.3855C0.0100532 4.36432 0.00195335 4.33897 0.00195335 4.31297C0.00195335 4.28698 0.0100532 4.26163 0.0251269 4.24045C0.0402005 4.21927 0.0614988 4.20331 0.0860607 4.1948L0.753726 3.97224C1.05219 3.87304 1.28596 3.63927 1.38516 3.34081L1.60772 2.67314C1.61623 2.64858 1.63219 2.62728 1.65337 2.61221C1.67455 2.59713 1.6999 2.58903 1.72589 2.58903C1.75189 2.58903 1.77724 2.59713 1.79842 2.61221C1.8196 2.62728 1.83556 2.64858 1.84407 2.67314L2.06663 3.34081C2.11556 3.48789 2.19811 3.62155 2.30771 3.73116C2.41732 3.84076 2.55098 3.92331 2.69806 3.97224L3.36573 4.1948C3.39029 4.20331 3.41159 4.21927 3.42666 4.24045C3.44174 4.26163 3.44984 4.28698 3.44984 4.31297C3.44984 4.33897 3.44174 4.36432 3.42666 4.3855C3.41159 4.40668 3.39029 4.42264 3.36573 4.43115L2.69806 4.65371C2.55098 4.70264 2.41732 4.78518 2.30771 4.89479C2.19811 5.0044 2.11556 5.13806 2.06663 5.28514L1.84407 5.95195C1.83556 5.97651 1.8196 5.99781 1.79842 6.01288C1.77724 6.02795 1.75189 6.03605 1.72589 6.03605C1.6999 6.03605 1.67455 6.02795 1.65337 6.01288C1.63219 5.99781 1.61623 5.97651 1.60772 5.95195L1.38516 5.28428C1.28596 4.98582 1.05219 4.75205 0.753726 4.65285L0.0869234 4.43115L0.0860607 4.43115Z" fill="white"/>
</g>
<defs>
<clipPath id="clip0_158_5048">
<rect width="13.8019" height="13.8019" fill="white" transform="translate(6.03297e-07 13.8019) rotate(-90)"/>
</clipPath>
</defs>
</svg>
